<svg xmlns:xlink="http://www.w3.org/1999/xlink" width="89" height="96" viewBox="0 0 89 96" fill="none" xmlns="http://www.w3.org/2000/svg"><path d="M77.5783 22.751L44.5055 3.54725C42.4198 2.35925 39.704 2.35925 37.6018 3.54725L4.17575 22.751C2.02325 23.9893 0.5 26.3165 0.5 28.8058V67.1623C0.5 69.6515 2.063 71.9795 4.2155 73.2245L13.0468 78.2405C17.2677 80.3195 18.7595 80.3195 20.6803 80.3195C26.93 80.3195 30.5 76.5403 30.5 69.9485V32.081C30.5 31.5463 30.2218 30.7505 29.6968 30.7505H25.4795C24.9455 30.7505 23.75 31.5463 23.75 32.0803V69.9478C23.75 72.8698 21.107 75.7775 16.1675 73.3078L7.04225 68.048C6.72425 67.8755 6.5 67.5283 6.5 67.1623V28.8058C6.5 28.4443 6.91625 28.0813 7.2365 27.896L40.5545 8.72525C40.8657 8.549 41.3233 8.549 41.6338 8.72525L74.5452 27.8915C74.8602 28.0813 74.7493 28.433 74.7493 28.8058V67.1623C74.7493 67.5283 74.8865 67.8845 74.5752 68.0608L41.5107 87.2428C41.2272 87.413 40.8755 87.413 40.565 87.2428L32.0847 82.181C31.829 82.0325 31.5253 81.9793 31.28 82.1165C28.9205 83.4538 28.4855 83.6315 26.2722 84.3988C25.7277 84.5885 24.9245 84.9178 26.5797 85.8455L37.6782 92.411C38.741 93.026 39.9485 93.3455 41.1635 93.3455C42.395 93.3455 43.601 93.026 44.6638 92.411L77.5775 73.2245C79.73 71.9705 80.75 69.6515 80.75 67.1623V28.8058C80.75 26.3165 79.73 23.9953 77.5783 22.751V22.751ZM51.4325 61.0843C42.638 61.0843 40.7008 58.658 40.055 54.2848C39.98 53.8138 39.5802 53.2505 39.101 53.2505H34.8027C34.271 53.2505 33.8435 53.8955 33.8435 54.425C33.8435 60.0245 36.8878 66.809 51.4333 66.809C61.9625 66.809 67.9993 62.7178 67.9993 55.4773C67.9993 48.2983 63.149 46.4143 52.9377 45.0628C42.6162 43.6985 41.5678 43.0093 41.5678 40.5913C41.5678 38.5978 42.4557 35.939 50.0982 35.939C56.927 35.939 59.444 37.4045 60.4797 42.0073C60.5682 42.44 60.9635 42.7505 61.4097 42.7505H65.7253C65.9908 42.7505 66.2442 42.6433 66.4302 42.4535C66.6102 42.2495 66.7055 41.9938 66.6815 41.7193C66.0132 33.7933 60.7475 30.0995 50.0975 30.0995C40.6242 30.0995 34.973 34.1 34.973 40.8058C34.973 48.0793 40.5957 50.0893 49.6895 50.9885C60.5682 52.055 61.4143 53.645 61.4143 55.7848C61.4143 59.501 58.4308 61.0843 51.4325 61.0843Z" fill="#83CD29"></path></svg>